<svg width="24" height="24" viewBox="0 0 24 24" fill="none" xmlns="http://www.w3.org/2000/svg">
  <rect x="2" y="2" width="20" height="20" rx="8" fill="#E8F0FF"/>
  <path d="M12 5.6C9.5 5.6 7.5 7.4 7.1 9.8C6.3 10.2 5.8 11 5.8 11.9C5.8 12.8 6.3 13.6 7.1 14C7.5 16.4 9.5 18.2 12 18.2C14.5 18.2 16.5 16.4 16.9 14C17.7 13.6 18.2 12.8 18.2 11.9C18.2 11 17.7 10.2 16.9 9.8C16.5 7.4 14.5 5.6 12 5.6Z" fill="#2563EB"/>
  <path d="M12 7.7V16.1" stroke="#F8FAFC" stroke-width="1.4" stroke-linecap="round"/>
  <path d="M8.9 10.1L10.3 11.1L8.9 12.2" stroke="#F8FAFC" stroke-width="1.4" stroke-linecap="round" stroke-linejoin="round"/>
  <path d="M15.1 10.1L13.7 11.1L15.1 12.2" stroke="#F8FAFC" stroke-width="1.4" stroke-linecap="round" stroke-linejoin="round"/>
  <circle cx="12" cy="11.9" r="1.5" fill="#93C5FD"/>
  <path d="M10.2 14.7C10.7 14.2 11.3 14 12 14C12.7 14 13.3 14.2 13.8 14.7" stroke="#F8FAFC" stroke-width="1.3" stroke-linecap="round"/>
</svg>
